<?xml version="1.0" standalone="no"?>
<!DOCTYPE svg PUBLIC "-//W3C//DTD SVG 20010904//EN"
 "http://www.w3.org/TR/2001/REC-SVG-20010904/DTD/svg10.dtd">
<svg version="1.0" xmlns="http://www.w3.org/2000/svg"
 width="500.000000pt" height="500.000000pt" viewBox="0 0 500.000000 500.000000"
 preserveAspectRatio="xMidYMid meet">

<g transform="translate(0.000000,500.000000) scale(0.100000,-0.100000)"
fill="#000000" stroke="none">
<path d="M2270 3383 c-32 -12 -50 -37 -50 -69 0 -24 -6 -37 -22 -45 -13 -7
-28 -19 -35 -28 -17 -22 -18 -932 -2 -964 31 -58 63 -51 246 54 662 381 649
374 657 405 4 15 3 30 -1 35 -4 4 -118 -55 -252 -132 -135 -76 -248 -139 -253
-139 -4 0 -8 38 -8 85 l0 85 -25 -16 c-41 -27 -94 -23 -121 10 -23 26 -24 32
-24 202 l0 176 29 29 c34 34 64 37 109 9 l32 -20 0 90 0 90 -39 24 c-64 41
-215 126 -221 125 -3 0 -12 -3 -20 -6z"/>
<path d="M2416 3048 c-13 -18 -16 -54 -16 -185 0 -150 2 -165 20 -183 26 -26
43 -25 91 2 l39 22 0 162 0 162 -34 21 c-44 27 -81 27 -100 -1z"/>
<path d="M2242 2089 c-131 -65 -131 -254 0 -318 57 -27 103 -27 158 2 132 66
132 248 0 315 -56 28 -103 28 -158 1z m112 -113 c57 -32 73 -46 64 -53 -18
-14 -144 -83 -151 -83 -4 0 -7 41 -7 90 0 50 4 90 9 90 5 0 43 -20 85 -44z"/>
<path d="M2836 2095 c-8 -21 -8 -273 0 -303 6 -21 12 -23 58 -20 l51 3 0 165
0 165 -51 3 c-40 2 -53 -1 -58 -13z"/>
<path d="M3005 2098 c-3 -8 -4 -83 -3 -168 l3 -155 50 0 50 0 0 165 0 165 -48
3 c-33 2 -49 -1 -52 -10z"/>
<path d="M1275 2067 c-3 -7 -4 -69 -3 -138 l3 -124 93 0 c117 0 129 19 15 23
l-83 3 0 49 0 50 60 0 c47 0 60 3 60 15 0 12 -13 15 -60 15 l-60 0 0 45 0 44
80 3 c112 4 107 22 -8 26 -70 2 -94 0 -97 -11z"/>
<path d="M1585 2049 c-123 -108 2 -308 145 -234 36 18 41 41 8 30 -57 -19
-103 -17 -130 5 -105 82 0 253 117 190 34 -18 46 -3 16 21 -16 13 -39 19 -72
19 -40 0 -55 -5 -84 -31z"/>
<path d="M1852 1946 c2 -80 7 -137 13 -139 6 -1 11 25 13 61 l3 62 84 0 84 0
3 -62 c2 -38 8 -63 16 -66 9 -3 12 29 12 138 0 109 -3 141 -12 138 -8 -3 -14
-27 -16 -61 l-3 -57 -84 0 -84 0 -3 57 c-2 35 -8 58 -16 61 -10 3 -12 -25 -10
-132z"/>
<path d="M2542 1946 c2 -80 7 -137 13 -139 6 -1 11 19 13 44 l3 47 51 4 c62 6
88 32 88 88 0 62 -25 83 -104 88 l-67 4 3 -136z m122 88 c9 -8 16 -28 16 -44
0 -40 -24 -60 -71 -60 l-39 0 0 60 0 60 39 0 c23 0 46 -7 55 -16z"/>
<path d="M3362 2063 c-41 -79 -103 -246 -95 -254 7 -7 17 2 31 25 21 35 23 36
82 36 59 0 61 -1 77 -35 17 -35 41 -43 35 -12 -5 32 -104 257 -113 257 -4 0
-12 -8 -17 -17z m37 -85 c38 -91 39 -88 -22 -88 l-55 0 26 65 c14 36 27 65 29
65 2 0 12 -19 22 -42z"/>
<path d="M3530 2070 c0 -5 21 -42 47 -82 36 -56 49 -85 53 -126 6 -67 24 -72
28 -8 3 39 14 65 53 126 27 42 49 82 49 88 0 27 -22 7 -64 -58 -25 -38 -48
-70 -50 -70 -3 0 -24 31 -48 70 -38 62 -68 88 -68 60z"/>
</g>
</svg>
